<svg xmlns="http://www.w3.org/2000/svg" version="1.1" xmlns:xlink="http://www.w3.org/1999/xlink" xmlns:svgjs="http://svgjs.dev/svgjs" width="2000" height="2169" viewBox="0 0 2000 2169"><g transform="matrix(1,0,0,1,-7.423076923076678,-3.0689042553187846)"><svg viewBox="0 0 130 141" data-background-color="#ffffff" preserveAspectRatio="xMidYMid meet" height="2169" width="2000" xmlns="http://www.w3.org/2000/svg" xmlns:xlink="http://www.w3.org/1999/xlink"><g id="tight-bounds" transform="matrix(1,0,0,1,0.4824999999999875,0.19949999999997203)"><svg viewBox="0 0 129.03468685714284 140.60052000000002" height="140.60052000000002" width="129.03468685714284"><g><svg viewBox="0 0 129.03468685714284 140.60052000000002" height="140.60052000000002" width="129.03468685714284"><g><svg viewBox="0 0 129.03468685714284 140.60052000000002" height="140.60052000000002" width="129.03468685714284"><g><path d="M0 140.601v-140.601h129.035v140.601z" fill="#000000" stroke="transparent" stroke-width="0" rx="0%" data-fill-palette-color="tertiary"></path><path d="M3.283 137.317v-134.034h122.468v134.034z" fill="#edff07" stroke="transparent" stroke-width="0" rx="0%" data-fill-palette-color="quaternary"></path><path d="M9.85 130.751v-120.901h109.335v120.901z" fill="#000000" stroke="transparent" stroke-width="0" data-fill-palette-color="tertiary"></path></g><g transform="matrix(1,0,0,1,19.69973999999999,19.69974)" id="textblocktransform"><svg viewBox="0 0 89.63520685714286 101.20104" height="101.20104" width="89.63520685714286" id="textblock"><g><svg viewBox="0 0 89.63520685714286 101.20104" height="101.20104" width="89.63520685714286"><g transform="matrix(1,0,0,1,0,0)"><svg width="89.63520685714286" viewBox="1.25 -35 31 35" height="101.20104" data-palette-color="#edff07"><path d="M32.25-34.05L29.5-34.05 29.5 0 22.5 0 5.35-32.35 5.35-0.95 8.1-0.95 8.1 0 1.25 0 1.25-0.95 4-0.95 4-34.05 1.25-34.05 1.25-35 15.05-35 28.15-9.9 28.15-34.05 25.4-34.05 25.4-35 32.25-35 32.25-34.05Z" opacity="1" transform="matrix(1,0,0,1,0,0)" fill="#edff07" class="wordmark-text-0" data-fill-palette-color="quaternary" id="text-0"></path></svg></g></svg></g></svg></g></svg></g><g></g></svg></g><defs></defs></svg><rect width="129.03468685714284" height="140.60052000000002" fill="none" stroke="none" visibility="hidden"></rect></g></svg></g></svg>